<svg xmlns="http://www.w3.org/2000/svg" width="1200" height="675" viewBox="0 0 1200 675" role="img" aria-label="Guild demo storyboard">
  <defs>
    <linearGradient id="bg" x1="0" y1="0" x2="1" y2="1">
      <stop offset="0" stop-color="#f8f0df"/>
      <stop offset="0.5" stop-color="#e8f1ea"/>
      <stop offset="1" stop-color="#d6e7ef"/>
    </linearGradient>
    <filter id="shadow" x="-20%" y="-20%" width="140%" height="140%">
      <feDropShadow dx="0" dy="18" stdDeviation="18" flood-color="#17211b" flood-opacity="0.18"/>
    </filter>
  </defs>
  <rect width="1200" height="675" fill="url(#bg)"/>
  <text x="60" y="82" fill="#17211b" font-size="46" font-family="Georgia,serif" font-weight="700">Guild</text>
  <text x="60" y="124" fill="#35443a" font-size="24" font-family="Verdana,sans-serif">The institution layer for AI teams</text>
  <g font-family="Verdana,sans-serif" font-size="18" text-anchor="middle">
    <g transform="translate(85 210)" filter="url(#shadow)">
      <rect width="150" height="110" rx="20" fill="#17211b"/>
      <text x="75" y="48" fill="#fff7e8">Taskpack</text>
      <text x="75" y="77" fill="#f3c46b" font-size="14">bounded work</text>
    </g>
    <g transform="translate(290 210)" filter="url(#shadow)">
      <rect width="150" height="110" rx="20" fill="#fffaf0"/>
      <text x="75" y="48" fill="#17211b">DRI</text>
      <text x="75" y="77" fill="#7f5d19" font-size="14">one owner</text>
    </g>
    <g transform="translate(495 210)" filter="url(#shadow)">
      <rect width="150" height="110" rx="20" fill="#fffaf0"/>
      <text x="75" y="48" fill="#17211b">Artifacts</text>
      <text x="75" y="77" fill="#7f5d19" font-size="14">durable record</text>
    </g>
    <g transform="translate(700 210)" filter="url(#shadow)">
      <rect width="150" height="110" rx="20" fill="#fffaf0"/>
      <text x="75" y="48" fill="#17211b">Replay</text>
      <text x="75" y="77" fill="#7f5d19" font-size="14">evidence</text>
    </g>
    <g transform="translate(905 210)" filter="url(#shadow)">
      <rect width="150" height="110" rx="20" fill="#d96d2b"/>
      <text x="75" y="48" fill="#fff7e8">Commons</text>
      <text x="75" y="77" fill="#fff7e8" font-size="14">shared learning</text>
    </g>
  </g>
  <g stroke="#17211b" stroke-width="3" fill="none" opacity="0.42">
    <path d="M240 265 H285"/>
    <path d="M445 265 H490"/>
    <path d="M650 265 H695"/>
    <path d="M855 265 H900"/>
  </g>
  <g transform="translate(120 410)" font-family="Verdana,sans-serif">
    <rect width="960" height="150" rx="28" fill="rgba(255,255,255,0.65)" stroke="rgba(23,33,27,0.18)"/>
    <text x="40" y="50" fill="#17211b" font-size="24" font-weight="700">Demo command</text>
    <text x="40" y="95" fill="#17211b" font-size="22" font-family="Menlo,monospace">make simulation</text>
    <text x="40" y="126" fill="#657269" font-size="17">One task. One DRI. Artifacts. Replay. Human approval. Promoted learning.</text>
  </g>
</svg>
